<mxfile host="app.diagrams.net" modified="2024-03-18T07:04:44.845Z" agent="Mozilla/5.0 (Windows NT 10.0; Win64; x64) AppleWebKit/537.36 (KHTML, like Gecko) Chrome/122.0.0.0 Safari/537.36" etag="gMlKHpwEuMqjLXVBtdPp" version="24.0.7" type="github">
  <diagram id="C5RBs43oDa-KdzZeNtuy" name="Page-1">
    <mxGraphModel dx="2620" dy="2152" grid="1" gridSize="10" guides="1" tooltips="1" connect="1" arrows="1" fold="1" page="1" pageScale="1" pageWidth="827" pageHeight="1169" math="0" shadow="0">
      <root>
        <mxCell id="WIyWlLk6GJQsqaUBKTNV-0" />
        <mxCell id="WIyWlLk6GJQsqaUBKTNV-1" parent="WIyWlLk6GJQsqaUBKTNV-0" />
        <mxCell id="8wKtFjNhrw_xLDvILcBQ-73" value="" style="whiteSpace=wrap;html=1;rounded=1;" vertex="1" parent="WIyWlLk6GJQsqaUBKTNV-1">
          <mxGeometry x="-690" y="180" width="720" height="1100" as="geometry" />
        </mxCell>
        <mxCell id="8wKtFjNhrw_xLDvILcBQ-110" style="edgeStyle=orthogonalEdgeStyle;rounded=0;orthogonalLoop=1;jettySize=auto;html=1;entryX=0.5;entryY=0;entryDx=0;entryDy=0;" edge="1" parent="WIyWlLk6GJQsqaUBKTNV-1" source="8wKtFjNhrw_xLDvILcBQ-106" target="8wKtFjNhrw_xLDvILcBQ-109">
          <mxGeometry relative="1" as="geometry" />
        </mxCell>
        <mxCell id="8wKtFjNhrw_xLDvILcBQ-106" value="&lt;p style=&quot;line-height: 100%;&quot;&gt;&lt;br&gt;&lt;/p&gt;" style="rounded=1;whiteSpace=wrap;html=1;dashed=1;dashPattern=1 2;fillColor=#fff2cc;strokeColor=#d6b656;align=left;" vertex="1" parent="WIyWlLk6GJQsqaUBKTNV-1">
          <mxGeometry x="-650" y="470" width="680" height="280" as="geometry" />
        </mxCell>
        <mxCell id="8wKtFjNhrw_xLDvILcBQ-13" value="" style="rounded=1;" vertex="1" parent="WIyWlLk6GJQsqaUBKTNV-1">
          <mxGeometry x="520" y="-130" width="810" height="710" as="geometry" />
        </mxCell>
        <mxCell id="8wKtFjNhrw_xLDvILcBQ-2" value="" style="edgeStyle=orthogonalEdgeStyle;rounded=0;orthogonalLoop=1;jettySize=auto;html=1;" edge="1" parent="WIyWlLk6GJQsqaUBKTNV-1" source="8wKtFjNhrw_xLDvILcBQ-0" target="8wKtFjNhrw_xLDvILcBQ-1">
          <mxGeometry relative="1" as="geometry" />
        </mxCell>
        <mxCell id="8wKtFjNhrw_xLDvILcBQ-0" value="Start" style="rounded=1;whiteSpace=wrap;html=1;" vertex="1" parent="WIyWlLk6GJQsqaUBKTNV-1">
          <mxGeometry x="190" y="120" width="120" height="60" as="geometry" />
        </mxCell>
        <mxCell id="8wKtFjNhrw_xLDvILcBQ-4" value="" style="edgeStyle=orthogonalEdgeStyle;rounded=0;orthogonalLoop=1;jettySize=auto;html=1;" edge="1" parent="WIyWlLk6GJQsqaUBKTNV-1" source="8wKtFjNhrw_xLDvILcBQ-1" target="8wKtFjNhrw_xLDvILcBQ-3">
          <mxGeometry relative="1" as="geometry" />
        </mxCell>
        <mxCell id="8wKtFjNhrw_xLDvILcBQ-1" value="Read Config" style="whiteSpace=wrap;html=1;rounded=1;" vertex="1" parent="WIyWlLk6GJQsqaUBKTNV-1">
          <mxGeometry x="190" y="210" width="120" height="60" as="geometry" />
        </mxCell>
        <mxCell id="8wKtFjNhrw_xLDvILcBQ-6" value="" style="edgeStyle=orthogonalEdgeStyle;rounded=0;orthogonalLoop=1;jettySize=auto;html=1;" edge="1" parent="WIyWlLk6GJQsqaUBKTNV-1" source="8wKtFjNhrw_xLDvILcBQ-3" target="8wKtFjNhrw_xLDvILcBQ-5">
          <mxGeometry relative="1" as="geometry" />
        </mxCell>
        <mxCell id="8wKtFjNhrw_xLDvILcBQ-14" value="" style="edgeStyle=orthogonalEdgeStyle;rounded=0;orthogonalLoop=1;jettySize=auto;html=1;" edge="1" parent="WIyWlLk6GJQsqaUBKTNV-1" source="8wKtFjNhrw_xLDvILcBQ-3" target="8wKtFjNhrw_xLDvILcBQ-13">
          <mxGeometry relative="1" as="geometry" />
        </mxCell>
        <mxCell id="8wKtFjNhrw_xLDvILcBQ-3" value="Call Login workflow" style="whiteSpace=wrap;html=1;rounded=1;" vertex="1" parent="WIyWlLk6GJQsqaUBKTNV-1">
          <mxGeometry x="190" y="300" width="120" height="60" as="geometry" />
        </mxCell>
        <mxCell id="8wKtFjNhrw_xLDvILcBQ-8" value="" style="edgeStyle=orthogonalEdgeStyle;rounded=0;orthogonalLoop=1;jettySize=auto;html=1;" edge="1" parent="WIyWlLk6GJQsqaUBKTNV-1" source="8wKtFjNhrw_xLDvILcBQ-5" target="8wKtFjNhrw_xLDvILcBQ-7">
          <mxGeometry relative="1" as="geometry" />
        </mxCell>
        <mxCell id="8wKtFjNhrw_xLDvILcBQ-9" value="False" style="edgeLabel;html=1;align=center;verticalAlign=middle;resizable=0;points=[];" vertex="1" connectable="0" parent="8wKtFjNhrw_xLDvILcBQ-8">
          <mxGeometry x="-0.1" y="1" relative="1" as="geometry">
            <mxPoint as="offset" />
          </mxGeometry>
        </mxCell>
        <mxCell id="8wKtFjNhrw_xLDvILcBQ-11" value="" style="edgeStyle=orthogonalEdgeStyle;rounded=0;orthogonalLoop=1;jettySize=auto;html=1;" edge="1" parent="WIyWlLk6GJQsqaUBKTNV-1" source="8wKtFjNhrw_xLDvILcBQ-5" target="8wKtFjNhrw_xLDvILcBQ-153">
          <mxGeometry relative="1" as="geometry">
            <mxPoint x="270" y="580" as="targetPoint" />
          </mxGeometry>
        </mxCell>
        <mxCell id="8wKtFjNhrw_xLDvILcBQ-12" value="True" style="edgeLabel;html=1;align=center;verticalAlign=middle;resizable=0;points=[];" vertex="1" connectable="0" parent="8wKtFjNhrw_xLDvILcBQ-11">
          <mxGeometry x="-0.2" y="-2" relative="1" as="geometry">
            <mxPoint as="offset" />
          </mxGeometry>
        </mxCell>
        <mxCell id="8wKtFjNhrw_xLDvILcBQ-5" value="Login success?" style="rhombus;whiteSpace=wrap;html=1;rounded=1;" vertex="1" parent="WIyWlLk6GJQsqaUBKTNV-1">
          <mxGeometry x="210" y="400" width="80" height="80" as="geometry" />
        </mxCell>
        <mxCell id="8wKtFjNhrw_xLDvILcBQ-7" value="End with Error Notice" style="ellipse;whiteSpace=wrap;html=1;rounded=1;fillColor=#f8cecc;strokeColor=#b85450;" vertex="1" parent="WIyWlLk6GJQsqaUBKTNV-1">
          <mxGeometry x="360" y="400" width="80" height="80" as="geometry" />
        </mxCell>
        <mxCell id="8wKtFjNhrw_xLDvILcBQ-74" value="" style="edgeStyle=orthogonalEdgeStyle;rounded=0;orthogonalLoop=1;jettySize=auto;html=1;" edge="1" parent="WIyWlLk6GJQsqaUBKTNV-1" source="8wKtFjNhrw_xLDvILcBQ-10" target="8wKtFjNhrw_xLDvILcBQ-73">
          <mxGeometry relative="1" as="geometry" />
        </mxCell>
        <mxCell id="8wKtFjNhrw_xLDvILcBQ-76" value="" style="edgeStyle=orthogonalEdgeStyle;rounded=0;orthogonalLoop=1;jettySize=auto;html=1;" edge="1" parent="WIyWlLk6GJQsqaUBKTNV-1" source="8wKtFjNhrw_xLDvILcBQ-10" target="8wKtFjNhrw_xLDvILcBQ-155">
          <mxGeometry relative="1" as="geometry">
            <mxPoint x="250" y="810" as="targetPoint" />
          </mxGeometry>
        </mxCell>
        <mxCell id="8wKtFjNhrw_xLDvILcBQ-10" value="Call BCBSIL_locateCompanyEE&lt;div&gt;workflow&lt;/div&gt;" style="whiteSpace=wrap;html=1;rounded=1;" vertex="1" parent="WIyWlLk6GJQsqaUBKTNV-1">
          <mxGeometry x="175" y="620" width="150" height="60" as="geometry" />
        </mxCell>
        <mxCell id="8wKtFjNhrw_xLDvILcBQ-25" style="edgeStyle=orthogonalEdgeStyle;rounded=0;orthogonalLoop=1;jettySize=auto;html=1;" edge="1" parent="WIyWlLk6GJQsqaUBKTNV-1" source="8wKtFjNhrw_xLDvILcBQ-16" target="8wKtFjNhrw_xLDvILcBQ-21">
          <mxGeometry relative="1" as="geometry" />
        </mxCell>
        <mxCell id="8wKtFjNhrw_xLDvILcBQ-16" value="input:&amp;nbsp;&lt;div&gt;If_psw: boolen, true means using password to login, false means using tookit.&lt;/div&gt;&lt;div&gt;user_name: optional, carrier login credential id&lt;/div&gt;&lt;div&gt;pass_word:&amp;nbsp;&lt;span style=&quot;background-color: initial;&quot;&gt;optional, carrier login credential password&lt;/span&gt;&lt;/div&gt;&lt;div&gt;&lt;span style=&quot;background-color: initial;&quot;&gt;robo_userid:&amp;nbsp;&lt;/span&gt;&lt;span style=&quot;background-color: initial;&quot;&gt;optional, the toolkit login id&lt;/span&gt;&lt;/div&gt;&lt;div&gt;&lt;span style=&quot;background-color: initial;&quot;&gt;robo_psw:&amp;nbsp;&lt;/span&gt;&lt;span style=&quot;background-color: initial;&quot;&gt;optional,&amp;nbsp;&lt;/span&gt;&lt;span style=&quot;background-color: initial;&quot;&gt;the toolkit login&amp;nbsp;&lt;/span&gt;&lt;span style=&quot;background-color: initial;&quot;&gt;password&lt;/span&gt;&lt;/div&gt;&lt;div&gt;robo_carrier_loginid:&amp;nbsp;&lt;span style=&quot;background-color: initial;&quot;&gt;optional, carrier login credential id in toolkit&lt;/span&gt;&lt;/div&gt;" style="rounded=0;whiteSpace=wrap;html=1;align=left;dashed=1;" vertex="1" parent="WIyWlLk6GJQsqaUBKTNV-1">
          <mxGeometry x="630" y="-120" width="370" height="130" as="geometry" />
        </mxCell>
        <mxCell id="8wKtFjNhrw_xLDvILcBQ-24" value="" style="edgeStyle=orthogonalEdgeStyle;rounded=0;orthogonalLoop=1;jettySize=auto;html=1;" edge="1" parent="WIyWlLk6GJQsqaUBKTNV-1" source="8wKtFjNhrw_xLDvILcBQ-21" target="8wKtFjNhrw_xLDvILcBQ-23">
          <mxGeometry relative="1" as="geometry" />
        </mxCell>
        <mxCell id="8wKtFjNhrw_xLDvILcBQ-21" value="Start" style="rounded=1;whiteSpace=wrap;html=1;" vertex="1" parent="WIyWlLk6GJQsqaUBKTNV-1">
          <mxGeometry x="755" y="45" width="120" height="30" as="geometry" />
        </mxCell>
        <mxCell id="8wKtFjNhrw_xLDvILcBQ-29" value="" style="edgeStyle=orthogonalEdgeStyle;rounded=0;orthogonalLoop=1;jettySize=auto;html=1;" edge="1" parent="WIyWlLk6GJQsqaUBKTNV-1" source="8wKtFjNhrw_xLDvILcBQ-23" target="8wKtFjNhrw_xLDvILcBQ-28">
          <mxGeometry relative="1" as="geometry" />
        </mxCell>
        <mxCell id="8wKtFjNhrw_xLDvILcBQ-23" value="lunch Chrome and navi to BCBSIL login page" style="whiteSpace=wrap;html=1;rounded=1;" vertex="1" parent="WIyWlLk6GJQsqaUBKTNV-1">
          <mxGeometry x="755" y="95" width="120" height="60" as="geometry" />
        </mxCell>
        <mxCell id="8wKtFjNhrw_xLDvILcBQ-31" value="" style="edgeStyle=orthogonalEdgeStyle;rounded=0;orthogonalLoop=1;jettySize=auto;html=1;" edge="1" parent="WIyWlLk6GJQsqaUBKTNV-1" source="8wKtFjNhrw_xLDvILcBQ-28" target="8wKtFjNhrw_xLDvILcBQ-30">
          <mxGeometry relative="1" as="geometry" />
        </mxCell>
        <mxCell id="8wKtFjNhrw_xLDvILcBQ-38" value="False" style="edgeLabel;html=1;align=center;verticalAlign=middle;resizable=0;points=[];" vertex="1" connectable="0" parent="8wKtFjNhrw_xLDvILcBQ-31">
          <mxGeometry x="0.0154" y="-3" relative="1" as="geometry">
            <mxPoint as="offset" />
          </mxGeometry>
        </mxCell>
        <mxCell id="8wKtFjNhrw_xLDvILcBQ-33" value="" style="edgeStyle=orthogonalEdgeStyle;rounded=0;orthogonalLoop=1;jettySize=auto;html=1;" edge="1" parent="WIyWlLk6GJQsqaUBKTNV-1" source="8wKtFjNhrw_xLDvILcBQ-28" target="8wKtFjNhrw_xLDvILcBQ-32">
          <mxGeometry relative="1" as="geometry" />
        </mxCell>
        <mxCell id="8wKtFjNhrw_xLDvILcBQ-37" value="True" style="edgeLabel;html=1;align=center;verticalAlign=middle;resizable=0;points=[];" vertex="1" connectable="0" parent="8wKtFjNhrw_xLDvILcBQ-33">
          <mxGeometry x="-0.2923" y="2" relative="1" as="geometry">
            <mxPoint as="offset" />
          </mxGeometry>
        </mxCell>
        <mxCell id="8wKtFjNhrw_xLDvILcBQ-28" value="if_psw?" style="rhombus;whiteSpace=wrap;html=1;rounded=1;" vertex="1" parent="WIyWlLk6GJQsqaUBKTNV-1">
          <mxGeometry x="775" y="175" width="80" height="80" as="geometry" />
        </mxCell>
        <mxCell id="8wKtFjNhrw_xLDvILcBQ-48" value="" style="edgeStyle=orthogonalEdgeStyle;rounded=0;orthogonalLoop=1;jettySize=auto;html=1;entryX=0;entryY=0.5;entryDx=0;entryDy=0;" edge="1" parent="WIyWlLk6GJQsqaUBKTNV-1" source="8wKtFjNhrw_xLDvILcBQ-30" target="8wKtFjNhrw_xLDvILcBQ-47">
          <mxGeometry relative="1" as="geometry" />
        </mxCell>
        <mxCell id="8wKtFjNhrw_xLDvILcBQ-30" value="run subflow &quot;by_toolkit&quot;" style="rounded=1;whiteSpace=wrap;html=1;" vertex="1" parent="WIyWlLk6GJQsqaUBKTNV-1">
          <mxGeometry x="920" y="202.5" width="130" height="25" as="geometry" />
        </mxCell>
        <mxCell id="8wKtFjNhrw_xLDvILcBQ-40" value="" style="edgeStyle=orthogonalEdgeStyle;rounded=0;orthogonalLoop=1;jettySize=auto;html=1;" edge="1" parent="WIyWlLk6GJQsqaUBKTNV-1" source="8wKtFjNhrw_xLDvILcBQ-32" target="8wKtFjNhrw_xLDvILcBQ-39">
          <mxGeometry relative="1" as="geometry" />
        </mxCell>
        <mxCell id="8wKtFjNhrw_xLDvILcBQ-32" value="run subflow &quot;by_psw&quot;" style="rounded=1;whiteSpace=wrap;html=1;" vertex="1" parent="WIyWlLk6GJQsqaUBKTNV-1">
          <mxGeometry x="590" y="197.5" width="120" height="35" as="geometry" />
        </mxCell>
        <mxCell id="8wKtFjNhrw_xLDvILcBQ-42" value="" style="edgeStyle=orthogonalEdgeStyle;rounded=0;orthogonalLoop=1;jettySize=auto;html=1;entryX=0.5;entryY=0;entryDx=0;entryDy=0;" edge="1" parent="WIyWlLk6GJQsqaUBKTNV-1" source="8wKtFjNhrw_xLDvILcBQ-39" target="8wKtFjNhrw_xLDvILcBQ-147">
          <mxGeometry relative="1" as="geometry" />
        </mxCell>
        <mxCell id="8wKtFjNhrw_xLDvILcBQ-39" value="entry id&amp;amp;psw" style="whiteSpace=wrap;html=1;rounded=1;" vertex="1" parent="WIyWlLk6GJQsqaUBKTNV-1">
          <mxGeometry x="590" y="255" width="120" height="25" as="geometry" />
        </mxCell>
        <mxCell id="8wKtFjNhrw_xLDvILcBQ-44" value="" style="edgeStyle=orthogonalEdgeStyle;rounded=0;orthogonalLoop=1;jettySize=auto;html=1;" edge="1" parent="WIyWlLk6GJQsqaUBKTNV-1" source="8wKtFjNhrw_xLDvILcBQ-41" target="8wKtFjNhrw_xLDvILcBQ-43">
          <mxGeometry relative="1" as="geometry" />
        </mxCell>
        <mxCell id="8wKtFjNhrw_xLDvILcBQ-41" value="if page contains &quot;remember device&quot; click &quot;No&quot;" style="whiteSpace=wrap;html=1;rounded=1;" vertex="1" parent="WIyWlLk6GJQsqaUBKTNV-1">
          <mxGeometry x="960" y="315" width="120" height="50" as="geometry" />
        </mxCell>
        <mxCell id="8wKtFjNhrw_xLDvILcBQ-46" value="" style="edgeStyle=orthogonalEdgeStyle;rounded=0;orthogonalLoop=1;jettySize=auto;html=1;" edge="1" parent="WIyWlLk6GJQsqaUBKTNV-1" source="8wKtFjNhrw_xLDvILcBQ-43" target="8wKtFjNhrw_xLDvILcBQ-45">
          <mxGeometry relative="1" as="geometry" />
        </mxCell>
        <mxCell id="8wKtFjNhrw_xLDvILcBQ-43" value="if page contains &quot;Choose state&quot; navi to producers&amp;nbsp;&lt;div&gt;https://blueaccessforproducers.bcbsil.com/producers/#/&lt;br&gt;&lt;/div&gt;" style="whiteSpace=wrap;html=1;rounded=1;" vertex="1" parent="WIyWlLk6GJQsqaUBKTNV-1">
          <mxGeometry x="710" y="420" width="310" height="50" as="geometry" />
        </mxCell>
        <mxCell id="8wKtFjNhrw_xLDvILcBQ-66" value="" style="edgeStyle=orthogonalEdgeStyle;rounded=0;orthogonalLoop=1;jettySize=auto;html=1;" edge="1" parent="WIyWlLk6GJQsqaUBKTNV-1" source="8wKtFjNhrw_xLDvILcBQ-45" target="8wKtFjNhrw_xLDvILcBQ-65">
          <mxGeometry relative="1" as="geometry" />
        </mxCell>
        <mxCell id="8wKtFjNhrw_xLDvILcBQ-45" value="Click Employer icon" style="whiteSpace=wrap;html=1;rounded=1;" vertex="1" parent="WIyWlLk6GJQsqaUBKTNV-1">
          <mxGeometry x="796.25" y="500" width="137.5" height="40" as="geometry" />
        </mxCell>
        <mxCell id="8wKtFjNhrw_xLDvILcBQ-50" value="" style="edgeStyle=orthogonalEdgeStyle;rounded=0;orthogonalLoop=1;jettySize=auto;html=1;" edge="1" parent="WIyWlLk6GJQsqaUBKTNV-1" source="8wKtFjNhrw_xLDvILcBQ-47" target="8wKtFjNhrw_xLDvILcBQ-49">
          <mxGeometry relative="1" as="geometry" />
        </mxCell>
        <mxCell id="8wKtFjNhrw_xLDvILcBQ-47" value="Toolkit means roboform in current version" style="whiteSpace=wrap;html=1;rounded=1;" vertex="1" parent="WIyWlLk6GJQsqaUBKTNV-1">
          <mxGeometry x="1140" y="-100" width="120" height="60" as="geometry" />
        </mxCell>
        <mxCell id="8wKtFjNhrw_xLDvILcBQ-52" value="" style="edgeStyle=orthogonalEdgeStyle;rounded=0;orthogonalLoop=1;jettySize=auto;html=1;" edge="1" parent="WIyWlLk6GJQsqaUBKTNV-1" source="8wKtFjNhrw_xLDvILcBQ-49" target="8wKtFjNhrw_xLDvILcBQ-51">
          <mxGeometry relative="1" as="geometry" />
        </mxCell>
        <mxCell id="8wKtFjNhrw_xLDvILcBQ-49" value="hover mouse on roboform icon and click to open the login form, entry password to login" style="whiteSpace=wrap;html=1;rounded=1;" vertex="1" parent="WIyWlLk6GJQsqaUBKTNV-1">
          <mxGeometry x="1140" y="-20" width="120" height="70" as="geometry" />
        </mxCell>
        <mxCell id="8wKtFjNhrw_xLDvILcBQ-54" value="" style="edgeStyle=orthogonalEdgeStyle;rounded=0;orthogonalLoop=1;jettySize=auto;html=1;" edge="1" parent="WIyWlLk6GJQsqaUBKTNV-1" source="8wKtFjNhrw_xLDvILcBQ-51" target="8wKtFjNhrw_xLDvILcBQ-53">
          <mxGeometry relative="1" as="geometry" />
        </mxCell>
        <mxCell id="8wKtFjNhrw_xLDvILcBQ-51" value="navi to &quot;https://start.roboform.com/#view=folder&amp;amp;type=login&quot;" style="html=1;rounded=1;whiteSpace=wrap;" vertex="1" parent="WIyWlLk6GJQsqaUBKTNV-1">
          <mxGeometry x="1140" y="70" width="120" height="40" as="geometry" />
        </mxCell>
        <mxCell id="8wKtFjNhrw_xLDvILcBQ-63" value="" style="edgeStyle=orthogonalEdgeStyle;rounded=0;orthogonalLoop=1;jettySize=auto;html=1;" edge="1" parent="WIyWlLk6GJQsqaUBKTNV-1" source="8wKtFjNhrw_xLDvILcBQ-53" target="8wKtFjNhrw_xLDvILcBQ-62">
          <mxGeometry relative="1" as="geometry" />
        </mxCell>
        <mxCell id="8wKtFjNhrw_xLDvILcBQ-53" value="entry robo_carrier_login in search box and click the first result, will auto-login to BCBSIL" style="whiteSpace=wrap;html=1;rounded=1;" vertex="1" parent="WIyWlLk6GJQsqaUBKTNV-1">
          <mxGeometry x="1140" y="132.5" width="120" height="70" as="geometry" />
        </mxCell>
        <mxCell id="8wKtFjNhrw_xLDvILcBQ-60" style="edgeStyle=orthogonalEdgeStyle;rounded=0;orthogonalLoop=1;jettySize=auto;html=1;exitX=0.5;exitY=1;exitDx=0;exitDy=0;" edge="1" parent="WIyWlLk6GJQsqaUBKTNV-1">
          <mxGeometry relative="1" as="geometry">
            <mxPoint x="1200" y="420" as="sourcePoint" />
            <mxPoint x="1200" y="420" as="targetPoint" />
          </mxGeometry>
        </mxCell>
        <mxCell id="8wKtFjNhrw_xLDvILcBQ-64" style="edgeStyle=orthogonalEdgeStyle;rounded=0;orthogonalLoop=1;jettySize=auto;html=1;" edge="1" parent="WIyWlLk6GJQsqaUBKTNV-1" source="8wKtFjNhrw_xLDvILcBQ-62" target="8wKtFjNhrw_xLDvILcBQ-147">
          <mxGeometry relative="1" as="geometry">
            <mxPoint x="865" y="340" as="targetPoint" />
          </mxGeometry>
        </mxCell>
        <mxCell id="8wKtFjNhrw_xLDvILcBQ-62" value="Close the roboform tab, focus on BCBSIL tab" style="whiteSpace=wrap;html=1;rounded=1;" vertex="1" parent="WIyWlLk6GJQsqaUBKTNV-1">
          <mxGeometry x="1140" y="242.5" width="120" height="50" as="geometry" />
        </mxCell>
        <mxCell id="8wKtFjNhrw_xLDvILcBQ-70" value="" style="edgeStyle=orthogonalEdgeStyle;rounded=0;orthogonalLoop=1;jettySize=auto;html=1;" edge="1" parent="WIyWlLk6GJQsqaUBKTNV-1" source="8wKtFjNhrw_xLDvILcBQ-65" target="8wKtFjNhrw_xLDvILcBQ-69">
          <mxGeometry relative="1" as="geometry" />
        </mxCell>
        <mxCell id="8wKtFjNhrw_xLDvILcBQ-65" value="close the BCBSIL BAP tab and focus to Employer tab" style="whiteSpace=wrap;html=1;rounded=1;" vertex="1" parent="WIyWlLk6GJQsqaUBKTNV-1">
          <mxGeometry x="980" y="490" width="170" height="60" as="geometry" />
        </mxCell>
        <mxCell id="8wKtFjNhrw_xLDvILcBQ-69" value="Output: Chrome title" style="whiteSpace=wrap;html=1;rounded=1;dashed=1;fillColor=#d5e8d4;strokeColor=#82b366;" vertex="1" parent="WIyWlLk6GJQsqaUBKTNV-1">
          <mxGeometry x="1181" y="490" width="120" height="60" as="geometry" />
        </mxCell>
        <mxCell id="8wKtFjNhrw_xLDvILcBQ-78" value="" style="edgeStyle=orthogonalEdgeStyle;rounded=0;orthogonalLoop=1;jettySize=auto;html=1;" edge="1" parent="WIyWlLk6GJQsqaUBKTNV-1" source="8wKtFjNhrw_xLDvILcBQ-75" target="8wKtFjNhrw_xLDvILcBQ-77">
          <mxGeometry relative="1" as="geometry" />
        </mxCell>
        <mxCell id="8wKtFjNhrw_xLDvILcBQ-75" value="Call Enrollment workflow" style="whiteSpace=wrap;html=1;rounded=1;" vertex="1" parent="WIyWlLk6GJQsqaUBKTNV-1">
          <mxGeometry x="340" y="865" width="120" height="60" as="geometry" />
        </mxCell>
        <mxCell id="8wKtFjNhrw_xLDvILcBQ-77" value="" style="whiteSpace=wrap;html=1;rounded=1;" vertex="1" parent="WIyWlLk6GJQsqaUBKTNV-1">
          <mxGeometry x="520" y="585" width="930" height="620" as="geometry" />
        </mxCell>
        <mxCell id="8wKtFjNhrw_xLDvILcBQ-81" value="" style="edgeStyle=orthogonalEdgeStyle;rounded=0;orthogonalLoop=1;jettySize=auto;html=1;" edge="1" parent="WIyWlLk6GJQsqaUBKTNV-1" source="8wKtFjNhrw_xLDvILcBQ-79" target="8wKtFjNhrw_xLDvILcBQ-80">
          <mxGeometry relative="1" as="geometry" />
        </mxCell>
        <mxCell id="8wKtFjNhrw_xLDvILcBQ-79" value="input:&amp;nbsp;&lt;div&gt;ChromeTitle: String, the foregroud chrome&#39;s title&lt;/div&gt;&lt;div&gt;CompanyName: String, the employee&#39;s company(group) name&lt;/div&gt;&lt;div&gt;EE_FN: optional&lt;span style=&quot;background-color: initial;&quot;&gt;, carrier login credential password&lt;/span&gt;&lt;/div&gt;&lt;div&gt;&lt;span style=&quot;background-color: initial;&quot;&gt;EE_LN:&amp;nbsp;&lt;/span&gt;optional&lt;span style=&quot;background-color: initial;&quot;&gt;, the toolkit login id&lt;/span&gt;&lt;/div&gt;&lt;div&gt;&lt;span style=&quot;background-color: initial;&quot;&gt;EE_SSN:&amp;nbsp;&lt;/span&gt;optional&lt;span style=&quot;background-color: initial;&quot;&gt;,&amp;nbsp;&lt;/span&gt;&lt;span style=&quot;background-color: initial;&quot;&gt;the toolkit login&amp;nbsp;&lt;/span&gt;&lt;span style=&quot;background-color: initial;&quot;&gt;password&lt;/span&gt;&lt;/div&gt;" style="rounded=0;whiteSpace=wrap;html=1;align=left;dashed=1;" vertex="1" parent="WIyWlLk6GJQsqaUBKTNV-1">
          <mxGeometry x="-565" y="190" width="370" height="90" as="geometry" />
        </mxCell>
        <mxCell id="8wKtFjNhrw_xLDvILcBQ-83" value="" style="edgeStyle=orthogonalEdgeStyle;rounded=0;orthogonalLoop=1;jettySize=auto;html=1;" edge="1" parent="WIyWlLk6GJQsqaUBKTNV-1" source="8wKtFjNhrw_xLDvILcBQ-80" target="8wKtFjNhrw_xLDvILcBQ-82">
          <mxGeometry relative="1" as="geometry" />
        </mxCell>
        <mxCell id="8wKtFjNhrw_xLDvILcBQ-80" value="Start" style="rounded=1;whiteSpace=wrap;html=1;" vertex="1" parent="WIyWlLk6GJQsqaUBKTNV-1">
          <mxGeometry x="-440" y="292.5" width="120" height="20" as="geometry" />
        </mxCell>
        <mxCell id="8wKtFjNhrw_xLDvILcBQ-85" value="" style="edgeStyle=orthogonalEdgeStyle;rounded=0;orthogonalLoop=1;jettySize=auto;html=1;" edge="1" parent="WIyWlLk6GJQsqaUBKTNV-1" source="8wKtFjNhrw_xLDvILcBQ-82" target="8wKtFjNhrw_xLDvILcBQ-84">
          <mxGeometry relative="1" as="geometry" />
        </mxCell>
        <mxCell id="8wKtFjNhrw_xLDvILcBQ-82" value="attach Chrome to ChromeTitle, check if current page contains &quot;SearchAcctName&quot; box, navigate to &quot;https://employersportal.bcbsil.com/wps/myportal/bae/broker&quot; if not" style="whiteSpace=wrap;html=1;rounded=1;" vertex="1" parent="WIyWlLk6GJQsqaUBKTNV-1">
          <mxGeometry x="-620" y="330" width="480" height="50" as="geometry" />
        </mxCell>
        <mxCell id="8wKtFjNhrw_xLDvILcBQ-108" style="edgeStyle=orthogonalEdgeStyle;rounded=0;orthogonalLoop=1;jettySize=auto;html=1;" edge="1" parent="WIyWlLk6GJQsqaUBKTNV-1" source="8wKtFjNhrw_xLDvILcBQ-84" target="8wKtFjNhrw_xLDvILcBQ-106">
          <mxGeometry relative="1" as="geometry" />
        </mxCell>
        <mxCell id="8wKtFjNhrw_xLDvILcBQ-84" value="Run Subflow “Navi_to_company”" style="whiteSpace=wrap;html=1;rounded=1;" vertex="1" parent="WIyWlLk6GJQsqaUBKTNV-1">
          <mxGeometry x="-440" y="400" width="120" height="40" as="geometry" />
        </mxCell>
        <mxCell id="8wKtFjNhrw_xLDvILcBQ-92" value="" style="edgeStyle=orthogonalEdgeStyle;rounded=0;orthogonalLoop=1;jettySize=auto;html=1;" edge="1" parent="WIyWlLk6GJQsqaUBKTNV-1" source="8wKtFjNhrw_xLDvILcBQ-89" target="8wKtFjNhrw_xLDvILcBQ-91">
          <mxGeometry relative="1" as="geometry" />
        </mxCell>
        <mxCell id="8wKtFjNhrw_xLDvILcBQ-89" value="entry&amp;nbsp;&lt;span style=&quot;text-align: left;&quot;&gt;CompanyName and click Search&lt;/span&gt;" style="rounded=1;whiteSpace=wrap;html=1;" vertex="1" parent="WIyWlLk6GJQsqaUBKTNV-1">
          <mxGeometry x="-440" y="490" width="120" height="40" as="geometry" />
        </mxCell>
        <mxCell id="8wKtFjNhrw_xLDvILcBQ-94" value="" style="edgeStyle=orthogonalEdgeStyle;rounded=0;orthogonalLoop=1;jettySize=auto;html=1;" edge="1" parent="WIyWlLk6GJQsqaUBKTNV-1" source="8wKtFjNhrw_xLDvILcBQ-91" target="8wKtFjNhrw_xLDvILcBQ-93">
          <mxGeometry relative="1" as="geometry" />
        </mxCell>
        <mxCell id="8wKtFjNhrw_xLDvILcBQ-97" value="True" style="edgeLabel;html=1;align=center;verticalAlign=middle;resizable=0;points=[];" vertex="1" connectable="0" parent="8wKtFjNhrw_xLDvILcBQ-94">
          <mxGeometry x="-0.4012" y="1" relative="1" as="geometry">
            <mxPoint as="offset" />
          </mxGeometry>
        </mxCell>
        <mxCell id="8wKtFjNhrw_xLDvILcBQ-96" value="False" style="edgeStyle=orthogonalEdgeStyle;rounded=0;orthogonalLoop=1;jettySize=auto;html=1;" edge="1" parent="WIyWlLk6GJQsqaUBKTNV-1" source="8wKtFjNhrw_xLDvILcBQ-91" target="8wKtFjNhrw_xLDvILcBQ-95">
          <mxGeometry relative="1" as="geometry" />
        </mxCell>
        <mxCell id="8wKtFjNhrw_xLDvILcBQ-91" value="No Result Found?" style="rhombus;whiteSpace=wrap;html=1;rounded=1;" vertex="1" parent="WIyWlLk6GJQsqaUBKTNV-1">
          <mxGeometry x="-420" y="550" width="80" height="80" as="geometry" />
        </mxCell>
        <mxCell id="8wKtFjNhrw_xLDvILcBQ-93" value="Stop Flow with error &quot;Account not found with Company name&quot;" style="whiteSpace=wrap;html=1;rounded=1;fillColor=#f8cecc;strokeColor=#b85450;" vertex="1" parent="WIyWlLk6GJQsqaUBKTNV-1">
          <mxGeometry x="-590" y="560" width="120" height="60" as="geometry" />
        </mxCell>
        <mxCell id="8wKtFjNhrw_xLDvILcBQ-99" value="" style="edgeStyle=orthogonalEdgeStyle;rounded=0;orthogonalLoop=1;jettySize=auto;html=1;" edge="1" parent="WIyWlLk6GJQsqaUBKTNV-1" source="8wKtFjNhrw_xLDvILcBQ-95" target="8wKtFjNhrw_xLDvILcBQ-98">
          <mxGeometry relative="1" as="geometry" />
        </mxCell>
        <mxCell id="8wKtFjNhrw_xLDvILcBQ-95" value="Run JS to get the result count" style="whiteSpace=wrap;html=1;rounded=1;" vertex="1" parent="WIyWlLk6GJQsqaUBKTNV-1">
          <mxGeometry x="-280" y="560" width="120" height="60" as="geometry" />
        </mxCell>
        <mxCell id="8wKtFjNhrw_xLDvILcBQ-101" value="" style="edgeStyle=orthogonalEdgeStyle;rounded=0;orthogonalLoop=1;jettySize=auto;html=1;" edge="1" parent="WIyWlLk6GJQsqaUBKTNV-1" source="8wKtFjNhrw_xLDvILcBQ-98" target="8wKtFjNhrw_xLDvILcBQ-100">
          <mxGeometry relative="1" as="geometry" />
        </mxCell>
        <mxCell id="8wKtFjNhrw_xLDvILcBQ-105" value="False" style="edgeLabel;html=1;align=center;verticalAlign=middle;resizable=0;points=[];" vertex="1" connectable="0" parent="8wKtFjNhrw_xLDvILcBQ-101">
          <mxGeometry x="0.2835" relative="1" as="geometry">
            <mxPoint x="-12" as="offset" />
          </mxGeometry>
        </mxCell>
        <mxCell id="8wKtFjNhrw_xLDvILcBQ-103" value="" style="edgeStyle=orthogonalEdgeStyle;rounded=0;orthogonalLoop=1;jettySize=auto;html=1;" edge="1" parent="WIyWlLk6GJQsqaUBKTNV-1" source="8wKtFjNhrw_xLDvILcBQ-98" target="8wKtFjNhrw_xLDvILcBQ-102">
          <mxGeometry relative="1" as="geometry" />
        </mxCell>
        <mxCell id="8wKtFjNhrw_xLDvILcBQ-104" value="True" style="edgeLabel;html=1;align=center;verticalAlign=middle;resizable=0;points=[];" vertex="1" connectable="0" parent="8wKtFjNhrw_xLDvILcBQ-103">
          <mxGeometry x="-0.3014" y="2" relative="1" as="geometry">
            <mxPoint as="offset" />
          </mxGeometry>
        </mxCell>
        <mxCell id="8wKtFjNhrw_xLDvILcBQ-98" value="Result#=2" style="rhombus;whiteSpace=wrap;html=1;rounded=1;" vertex="1" parent="WIyWlLk6GJQsqaUBKTNV-1">
          <mxGeometry x="-260" y="640" width="80" height="80" as="geometry" />
        </mxCell>
        <mxCell id="8wKtFjNhrw_xLDvILcBQ-100" value="Stop Flow with error&lt;div&gt;&quot;Cannot get unique Company when locate company by name&quot;&lt;/div&gt;" style="whiteSpace=wrap;html=1;rounded=1;fillColor=#f8cecc;strokeColor=#b85450;" vertex="1" parent="WIyWlLk6GJQsqaUBKTNV-1">
          <mxGeometry x="-130" y="650" width="150" height="60" as="geometry" />
        </mxCell>
        <mxCell id="8wKtFjNhrw_xLDvILcBQ-102" value="Click Company name" style="whiteSpace=wrap;html=1;rounded=1;" vertex="1" parent="WIyWlLk6GJQsqaUBKTNV-1">
          <mxGeometry x="-440" y="650" width="120" height="60" as="geometry" />
        </mxCell>
        <mxCell id="8wKtFjNhrw_xLDvILcBQ-112" style="edgeStyle=orthogonalEdgeStyle;rounded=0;orthogonalLoop=1;jettySize=auto;html=1;entryX=0.5;entryY=0;entryDx=0;entryDy=0;" edge="1" parent="WIyWlLk6GJQsqaUBKTNV-1" source="8wKtFjNhrw_xLDvILcBQ-109" target="8wKtFjNhrw_xLDvILcBQ-111">
          <mxGeometry relative="1" as="geometry" />
        </mxCell>
        <mxCell id="8wKtFjNhrw_xLDvILcBQ-109" value="Run Subflow “Check_EE”" style="rounded=1;whiteSpace=wrap;html=1;" vertex="1" parent="WIyWlLk6GJQsqaUBKTNV-1">
          <mxGeometry x="-440" y="790" width="120" height="30" as="geometry" />
        </mxCell>
        <mxCell id="8wKtFjNhrw_xLDvILcBQ-111" value="&lt;p style=&quot;line-height: 100%;&quot;&gt;&lt;br&gt;&lt;/p&gt;" style="rounded=1;whiteSpace=wrap;html=1;dashed=1;dashPattern=1 2;fillColor=#fff2cc;strokeColor=#d6b656;align=left;" vertex="1" parent="WIyWlLk6GJQsqaUBKTNV-1">
          <mxGeometry x="-660" y="850" width="680" height="330" as="geometry" />
        </mxCell>
        <mxCell id="8wKtFjNhrw_xLDvILcBQ-117" value="" style="edgeStyle=orthogonalEdgeStyle;rounded=0;orthogonalLoop=1;jettySize=auto;html=1;" edge="1" parent="WIyWlLk6GJQsqaUBKTNV-1" source="8wKtFjNhrw_xLDvILcBQ-114" target="8wKtFjNhrw_xLDvILcBQ-116">
          <mxGeometry relative="1" as="geometry" />
        </mxCell>
        <mxCell id="8wKtFjNhrw_xLDvILcBQ-118" value="False" style="edgeLabel;html=1;align=center;verticalAlign=middle;resizable=0;points=[];" vertex="1" connectable="0" parent="8wKtFjNhrw_xLDvILcBQ-117">
          <mxGeometry x="-0.5895" y="1" relative="1" as="geometry">
            <mxPoint x="-10" y="-11" as="offset" />
          </mxGeometry>
        </mxCell>
        <mxCell id="8wKtFjNhrw_xLDvILcBQ-123" value="" style="edgeStyle=orthogonalEdgeStyle;rounded=0;orthogonalLoop=1;jettySize=auto;html=1;" edge="1" parent="WIyWlLk6GJQsqaUBKTNV-1" source="8wKtFjNhrw_xLDvILcBQ-114" target="8wKtFjNhrw_xLDvILcBQ-122">
          <mxGeometry relative="1" as="geometry" />
        </mxCell>
        <mxCell id="8wKtFjNhrw_xLDvILcBQ-124" value="True" style="edgeLabel;html=1;align=center;verticalAlign=middle;resizable=0;points=[];" vertex="1" connectable="0" parent="8wKtFjNhrw_xLDvILcBQ-123">
          <mxGeometry x="-0.2553" y="-2" relative="1" as="geometry">
            <mxPoint x="1" y="-12" as="offset" />
          </mxGeometry>
        </mxCell>
        <mxCell id="8wKtFjNhrw_xLDvILcBQ-114" value="EE_SSN is empty" style="rhombus;whiteSpace=wrap;html=1;rounded=1;" vertex="1" parent="WIyWlLk6GJQsqaUBKTNV-1">
          <mxGeometry x="-390" y="850" width="80" height="80" as="geometry" />
        </mxCell>
        <mxCell id="8wKtFjNhrw_xLDvILcBQ-133" style="edgeStyle=orthogonalEdgeStyle;rounded=0;orthogonalLoop=1;jettySize=auto;html=1;" edge="1" parent="WIyWlLk6GJQsqaUBKTNV-1" source="8wKtFjNhrw_xLDvILcBQ-116" target="8wKtFjNhrw_xLDvILcBQ-131">
          <mxGeometry relative="1" as="geometry">
            <Array as="points">
              <mxPoint x="-500" y="1040" />
            </Array>
          </mxGeometry>
        </mxCell>
        <mxCell id="8wKtFjNhrw_xLDvILcBQ-116" value="Entry SSN" style="whiteSpace=wrap;html=1;rounded=1;" vertex="1" parent="WIyWlLk6GJQsqaUBKTNV-1">
          <mxGeometry x="-570" y="875" width="120" height="30" as="geometry" />
        </mxCell>
        <mxCell id="8wKtFjNhrw_xLDvILcBQ-126" value="" style="edgeStyle=orthogonalEdgeStyle;rounded=0;orthogonalLoop=1;jettySize=auto;html=1;" edge="1" parent="WIyWlLk6GJQsqaUBKTNV-1" source="8wKtFjNhrw_xLDvILcBQ-122" target="8wKtFjNhrw_xLDvILcBQ-125">
          <mxGeometry relative="1" as="geometry" />
        </mxCell>
        <mxCell id="8wKtFjNhrw_xLDvILcBQ-128" value="False" style="edgeLabel;html=1;align=center;verticalAlign=middle;resizable=0;points=[];" vertex="1" connectable="0" parent="8wKtFjNhrw_xLDvILcBQ-126">
          <mxGeometry x="0.0421" relative="1" as="geometry">
            <mxPoint x="-1" y="-10" as="offset" />
          </mxGeometry>
        </mxCell>
        <mxCell id="8wKtFjNhrw_xLDvILcBQ-130" value="" style="edgeStyle=orthogonalEdgeStyle;rounded=0;orthogonalLoop=1;jettySize=auto;html=1;" edge="1" parent="WIyWlLk6GJQsqaUBKTNV-1" source="8wKtFjNhrw_xLDvILcBQ-122" target="8wKtFjNhrw_xLDvILcBQ-129">
          <mxGeometry relative="1" as="geometry" />
        </mxCell>
        <mxCell id="8wKtFjNhrw_xLDvILcBQ-122" value="if EE_FN and EE_LN is not empty" style="rhombus;whiteSpace=wrap;html=1;rounded=1;" vertex="1" parent="WIyWlLk6GJQsqaUBKTNV-1">
          <mxGeometry x="-270" y="847.5" width="110" height="85" as="geometry" />
        </mxCell>
        <mxCell id="8wKtFjNhrw_xLDvILcBQ-125" value="Stop Flow with error&lt;div&gt;&quot;Neither SSN nor Lastname&amp;amp;Firstname was provided&quot;&lt;/div&gt;" style="whiteSpace=wrap;html=1;rounded=1;fillColor=#f8cecc;strokeColor=#b85450;" vertex="1" parent="WIyWlLk6GJQsqaUBKTNV-1">
          <mxGeometry x="-120" y="860" width="130" height="60" as="geometry" />
        </mxCell>
        <mxCell id="8wKtFjNhrw_xLDvILcBQ-132" style="edgeStyle=orthogonalEdgeStyle;rounded=0;orthogonalLoop=1;jettySize=auto;html=1;entryX=0.5;entryY=0;entryDx=0;entryDy=0;" edge="1" parent="WIyWlLk6GJQsqaUBKTNV-1" source="8wKtFjNhrw_xLDvILcBQ-129" target="8wKtFjNhrw_xLDvILcBQ-131">
          <mxGeometry relative="1" as="geometry" />
        </mxCell>
        <mxCell id="8wKtFjNhrw_xLDvILcBQ-129" value="Entry EE_FN and EE_LN" style="whiteSpace=wrap;html=1;rounded=1;" vertex="1" parent="WIyWlLk6GJQsqaUBKTNV-1">
          <mxGeometry x="-275" y="950" width="120" height="60" as="geometry" />
        </mxCell>
        <mxCell id="8wKtFjNhrw_xLDvILcBQ-135" value="" style="edgeStyle=orthogonalEdgeStyle;rounded=0;orthogonalLoop=1;jettySize=auto;html=1;" edge="1" parent="WIyWlLk6GJQsqaUBKTNV-1" source="8wKtFjNhrw_xLDvILcBQ-131" target="8wKtFjNhrw_xLDvILcBQ-134">
          <mxGeometry relative="1" as="geometry">
            <Array as="points">
              <mxPoint x="-360" y="1130" />
              <mxPoint x="-360" y="1130" />
            </Array>
          </mxGeometry>
        </mxCell>
        <mxCell id="8wKtFjNhrw_xLDvILcBQ-131" value="Click Search" style="rounded=1;whiteSpace=wrap;html=1;" vertex="1" parent="WIyWlLk6GJQsqaUBKTNV-1">
          <mxGeometry x="-420" y="1010" width="120" height="60" as="geometry" />
        </mxCell>
        <mxCell id="8wKtFjNhrw_xLDvILcBQ-137" value="" style="edgeStyle=orthogonalEdgeStyle;rounded=0;orthogonalLoop=1;jettySize=auto;html=1;" edge="1" parent="WIyWlLk6GJQsqaUBKTNV-1" source="8wKtFjNhrw_xLDvILcBQ-134" target="8wKtFjNhrw_xLDvILcBQ-136">
          <mxGeometry relative="1" as="geometry" />
        </mxCell>
        <mxCell id="8wKtFjNhrw_xLDvILcBQ-138" value="True" style="edgeLabel;html=1;align=center;verticalAlign=middle;resizable=0;points=[];" vertex="1" connectable="0" parent="8wKtFjNhrw_xLDvILcBQ-137">
          <mxGeometry x="-0.1088" relative="1" as="geometry">
            <mxPoint as="offset" />
          </mxGeometry>
        </mxCell>
        <mxCell id="8wKtFjNhrw_xLDvILcBQ-140" value="" style="edgeStyle=orthogonalEdgeStyle;rounded=0;orthogonalLoop=1;jettySize=auto;html=1;" edge="1" parent="WIyWlLk6GJQsqaUBKTNV-1" source="8wKtFjNhrw_xLDvILcBQ-134" target="8wKtFjNhrw_xLDvILcBQ-139">
          <mxGeometry relative="1" as="geometry" />
        </mxCell>
        <mxCell id="8wKtFjNhrw_xLDvILcBQ-141" value="False" style="edgeLabel;html=1;align=center;verticalAlign=middle;resizable=0;points=[];" vertex="1" connectable="0" parent="8wKtFjNhrw_xLDvILcBQ-140">
          <mxGeometry x="-0.0807" y="-3" relative="1" as="geometry">
            <mxPoint as="offset" />
          </mxGeometry>
        </mxCell>
        <mxCell id="8wKtFjNhrw_xLDvILcBQ-134" value="if No result" style="rhombus;whiteSpace=wrap;html=1;rounded=1;" vertex="1" parent="WIyWlLk6GJQsqaUBKTNV-1">
          <mxGeometry x="-400" y="1089" width="80" height="80" as="geometry" />
        </mxCell>
        <mxCell id="8wKtFjNhrw_xLDvILcBQ-144" style="edgeStyle=orthogonalEdgeStyle;rounded=0;orthogonalLoop=1;jettySize=auto;html=1;entryX=1;entryY=0.5;entryDx=0;entryDy=0;" edge="1" parent="WIyWlLk6GJQsqaUBKTNV-1" source="8wKtFjNhrw_xLDvILcBQ-136" target="8wKtFjNhrw_xLDvILcBQ-142">
          <mxGeometry relative="1" as="geometry">
            <Array as="points">
              <mxPoint x="-130" y="1220" />
            </Array>
          </mxGeometry>
        </mxCell>
        <mxCell id="8wKtFjNhrw_xLDvILcBQ-136" value="Set EE_Status=null" style="whiteSpace=wrap;html=1;rounded=1;" vertex="1" parent="WIyWlLk6GJQsqaUBKTNV-1">
          <mxGeometry x="-200" y="1099" width="120" height="60" as="geometry" />
        </mxCell>
        <mxCell id="8wKtFjNhrw_xLDvILcBQ-143" style="edgeStyle=orthogonalEdgeStyle;rounded=0;orthogonalLoop=1;jettySize=auto;html=1;entryX=0;entryY=0.5;entryDx=0;entryDy=0;" edge="1" parent="WIyWlLk6GJQsqaUBKTNV-1" source="8wKtFjNhrw_xLDvILcBQ-139" target="8wKtFjNhrw_xLDvILcBQ-142">
          <mxGeometry relative="1" as="geometry">
            <Array as="points">
              <mxPoint x="-510" y="1220" />
            </Array>
          </mxGeometry>
        </mxCell>
        <mxCell id="8wKtFjNhrw_xLDvILcBQ-139" value="&lt;div&gt;Set EE_Status=&lt;span style=&quot;background-color: initial;&quot;&gt;Result length&lt;/span&gt;&lt;br&gt;&lt;/div&gt;" style="whiteSpace=wrap;html=1;rounded=1;" vertex="1" parent="WIyWlLk6GJQsqaUBKTNV-1">
          <mxGeometry x="-580" y="1099" width="120" height="60" as="geometry" />
        </mxCell>
        <mxCell id="8wKtFjNhrw_xLDvILcBQ-142" value="Output: EE_Status" style="rounded=0;whiteSpace=wrap;html=1;dashed=1;dashPattern=1 4;fillColor=#d5e8d4;strokeColor=#82b366;" vertex="1" parent="WIyWlLk6GJQsqaUBKTNV-1">
          <mxGeometry x="-400" y="1190" width="120" height="60" as="geometry" />
        </mxCell>
        <mxCell id="8wKtFjNhrw_xLDvILcBQ-148" value="" style="edgeStyle=orthogonalEdgeStyle;rounded=0;orthogonalLoop=1;jettySize=auto;html=1;" edge="1" parent="WIyWlLk6GJQsqaUBKTNV-1" source="8wKtFjNhrw_xLDvILcBQ-147" target="8wKtFjNhrw_xLDvILcBQ-41">
          <mxGeometry relative="1" as="geometry" />
        </mxCell>
        <mxCell id="8wKtFjNhrw_xLDvILcBQ-149" value="False" style="edgeLabel;html=1;align=center;verticalAlign=middle;resizable=0;points=[];" vertex="1" connectable="0" parent="8wKtFjNhrw_xLDvILcBQ-148">
          <mxGeometry x="-0.1743" y="-1" relative="1" as="geometry">
            <mxPoint as="offset" />
          </mxGeometry>
        </mxCell>
        <mxCell id="8wKtFjNhrw_xLDvILcBQ-151" value="" style="edgeStyle=orthogonalEdgeStyle;rounded=0;orthogonalLoop=1;jettySize=auto;html=1;" edge="1" parent="WIyWlLk6GJQsqaUBKTNV-1" source="8wKtFjNhrw_xLDvILcBQ-147" target="8wKtFjNhrw_xLDvILcBQ-150">
          <mxGeometry relative="1" as="geometry" />
        </mxCell>
        <mxCell id="8wKtFjNhrw_xLDvILcBQ-152" value="True" style="edgeLabel;html=1;align=center;verticalAlign=middle;resizable=0;points=[];" vertex="1" connectable="0" parent="8wKtFjNhrw_xLDvILcBQ-151">
          <mxGeometry x="-0.2063" y="1" relative="1" as="geometry">
            <mxPoint as="offset" />
          </mxGeometry>
        </mxCell>
        <mxCell id="8wKtFjNhrw_xLDvILcBQ-147" value="if login failure" style="rhombus;whiteSpace=wrap;html=1;" vertex="1" parent="WIyWlLk6GJQsqaUBKTNV-1">
          <mxGeometry x="790" y="300" width="80" height="80" as="geometry" />
        </mxCell>
        <mxCell id="8wKtFjNhrw_xLDvILcBQ-150" value="Stop Flow with error&lt;div&gt;&quot;Login credential incorrect&quot;&lt;/div&gt;" style="rounded=1;whiteSpace=wrap;html=1;fillColor=#f8cecc;strokeColor=#b85450;" vertex="1" parent="WIyWlLk6GJQsqaUBKTNV-1">
          <mxGeometry x="570" y="310" width="120" height="60" as="geometry" />
        </mxCell>
        <mxCell id="8wKtFjNhrw_xLDvILcBQ-154" value="" style="edgeStyle=orthogonalEdgeStyle;rounded=0;orthogonalLoop=1;jettySize=auto;html=1;" edge="1" parent="WIyWlLk6GJQsqaUBKTNV-1" source="8wKtFjNhrw_xLDvILcBQ-153" target="8wKtFjNhrw_xLDvILcBQ-10">
          <mxGeometry relative="1" as="geometry" />
        </mxCell>
        <mxCell id="8wKtFjNhrw_xLDvILcBQ-153" value="get Output: Chrome title" style="rounded=1;whiteSpace=wrap;html=1;" vertex="1" parent="WIyWlLk6GJQsqaUBKTNV-1">
          <mxGeometry x="190" y="524.9999999999995" width="120" height="60" as="geometry" />
        </mxCell>
        <mxCell id="8wKtFjNhrw_xLDvILcBQ-158" style="edgeStyle=orthogonalEdgeStyle;rounded=0;orthogonalLoop=1;jettySize=auto;html=1;entryX=0.5;entryY=0;entryDx=0;entryDy=0;exitX=1;exitY=0.5;exitDx=0;exitDy=0;" edge="1" parent="WIyWlLk6GJQsqaUBKTNV-1" source="8wKtFjNhrw_xLDvILcBQ-155" target="8wKtFjNhrw_xLDvILcBQ-75">
          <mxGeometry relative="1" as="geometry">
            <mxPoint x="380" y="940.0000000000005" as="targetPoint" />
          </mxGeometry>
        </mxCell>
        <mxCell id="8wKtFjNhrw_xLDvILcBQ-159" value="True" style="edgeLabel;html=1;align=center;verticalAlign=middle;resizable=0;points=[];" vertex="1" connectable="0" parent="8wKtFjNhrw_xLDvILcBQ-158">
          <mxGeometry x="-0.5727" y="-1" relative="1" as="geometry">
            <mxPoint x="-9" y="-1" as="offset" />
          </mxGeometry>
        </mxCell>
        <mxCell id="8wKtFjNhrw_xLDvILcBQ-155" value="if EE_Status is null" style="rhombus;whiteSpace=wrap;html=1;" vertex="1" parent="WIyWlLk6GJQsqaUBKTNV-1">
          <mxGeometry x="175" y="770" width="150" height="100" as="geometry" />
        </mxCell>
      </root>
    </mxGraphModel>
  </diagram>
</mxfile>
